<svg viewBox="0 0 1792 1792" id="icon-notifications-none" fill="white" xmlns="http://www.w3.org/2000/svg">
    <path d="M912 1696c0-10.667-5.334-16-16-16-39.334 0-73.167-14.167-101.5-42.5-28.334-28.333-42.5-62.167-42.5-101.5 0-10.667-5.334-16-16-16-10.667 0-16 5.333-16 16 0 48.667 17.166 90.167 51.5 124.5 34.333 34.333 75.833 51.5 124.5 51.5 10.666 0 16-5.333 16-16zm-666-287.5h1300c-177.334-200-266-477.583-266-832.25 0-34-8-69.125-24-105.125s-39-70.396-69-103.063-70.5-59.531-121.5-80.531S958 256.016 896 256.016s-118.5 10.492-169.5 31.492S635 335.337 605 368.004s-53 66.998-69 102.998-24 71.249-24 105.249c0 354.667-88.667 632.249-266 832.249zm1482-.5c0 34.667-12.667 64.917-38 90.25-25.334 25.333-55.334 38.25-90 38.25h-448c0 70-25 130.75-75 180.75s-110.334 74.875-181 74.875c-70.667 0-131-24.813-181-74.813S640 1606.5 640 1536.5H192c-34.667 0-64.667-12.917-90-38.25-25.334-25.333-38-55.458-38-90.125 33.333-28 63.666-57.396 91-88.063 27.333-30.667 55.666-70.531 85-119.531 29.333-49 54.166-101.849 74.5-158.516 20.333-56.667 37-125.341 50-206.008S384 668.671 384 576.004c0-101.333 39-195.502 117-282.502s180.333-139.834 307-158.501c-5.334-12.667-8-25.667-8-39 0-26.667 9.333-49.333 28-68 18.666-18.666 41.333-28 68-28 26.666 0 49.333 9.333 68 28 18.666 18.667 28 41.333 28 68 0 13.333-2.667 26.333-8 39 126.666 18.667 229 71.5 307 158.5s117 181.167 117 282.5c0 92.667 6.5 179.333 19.5 260s29.666 149.333 50 206c20.333 56.667 45.166 109.5 74.5 158.5 29.333 49 57.666 88.833 85 119.5 27.333 30.666 57.666 59.999 91 87.999z"/>
</svg>
